<svg xmlns:dc="http://purl.org/dc/elements/1.1/" xmlns:cc="http://creativecommons.org/ns#" xmlns:rdf="http://www.w3.org/1999/02/22-rdf-syntax-ns#" xmlns:svg="http://www.w3.org/2000/svg" xmlns="http://www.w3.org/2000/svg" xmlns:sodipodi="http://sodipodi.sourceforge.net/DTD/sodipodi-0.dtd" xmlns:inkscape="http://www.inkscape.org/namespaces/inkscape" version="1.1" x="0px" y="0px" viewBox="0 0 100 100"><g transform="translate(0,-952.36218)"><path style="text-indent:0;text-transform:none;direction:ltr;block-progression:tb;baseline-shift:baseline;color:#000000;enable-background:accumulate;" d="m 14,974.36217 c -3.826,0 -7.0000002,3.174 -7.0000002,7 l 0,42.00003 c 0,3.826 3.1740002,7 7.0000002,7 l 72,0 c 3.826,0 7,-3.174 7,-7 l 0,-42.00003 c 0,-3.826 -3.174,-7 -7,-7 l -72,0 z m 3.656199,6 64.687602,0 -31.375,28.65623 c -0.4132,0.3773 -1.5245,0.3772 -1.9376,0 L 17.656199,980.36217 z M 13,984.23717 33.781199,1003.2372 13,1020.7372 13,984.23717 z m 74,0 0,36.50003 -20.7812,-17.5 L 87,984.23717 z m -48.75,23.06253 6.7188,6.1563 c 2.860101,2.612 7.202201,2.6118 10.0624,0 l 6.7188,-6.1563 20.25,17.0625 -64,0 20.25,-17.0625 z" fill="#000000" fill-opacity="1" stroke="none" marker="none" visibility="visible" display="inline" overflow="visible"/></g></svg>
